<?xml version="1.0" standalone="no"?>
<!DOCTYPE svg PUBLIC "-//W3C//DTD SVG 20010904//EN"
 "http://www.w3.org/TR/2001/REC-SVG-20010904/DTD/svg10.dtd">
<svg version="1.0" xmlns="http://www.w3.org/2000/svg"
 width="78.000000pt" height="78.000000pt" viewBox="0 0 78.000000 78.000000"
 preserveAspectRatio="xMidYMid meet">
<metadata>
Created by potrace 1.14, written by Peter Selinger 2001-2017
</metadata>
<g transform="translate(0.000000,78.000000) scale(0.100000,-0.100000)"
fill="#000000" stroke="none">
<path d="M288 760 c-20 -16 -21 -22 -10 -39 11 -19 10 -21 -10 -17 -13 2 -31
-1 -40 -6 -16 -8 -16 -10 2 -28 11 -11 25 -20 31 -20 5 0 8 -4 5 -9 -7 -11
-71 -9 -82 2 -4 4 -16 7 -28 7 -20 0 -20 0 0 15 16 13 17 16 4 25 -26 17 -47
11 -84 -23 -33 -31 -34 -35 -21 -59 7 -15 11 -29 7 -32 -3 -3 -1 -6 5 -6 20 0
22 -29 5 -62 -20 -39 -23 -153 -4 -183 11 -18 11 -17 7 12 -10 65 33 189 58
164 7 -7 7 -14 0 -23 -27 -34 -31 -152 -8 -219 14 -40 14 -40 -8 -39 -38 4
-46 1 -58 -21 -9 -17 -8 -25 5 -37 14 -15 17 -15 29 1 14 20 47 14 47 -9 0 -8
4 -14 8 -14 5 0 15 -12 23 -27 14 -26 113 -106 136 -109 24 -4 98 18 116 33
13 13 20 14 29 5 13 -13 68 -14 105 -4 31 10 120 130 127 172 4 20 20 29 42
24 23 -6 25 -4 22 17 -2 19 -9 24 -30 24 -26 -1 -27 1 -26 60 1 69 -14 123
-50 178 -14 20 -23 40 -20 43 9 9 67 -69 79 -106 6 -19 15 -39 20 -44 8 -9 7
4 -7 69 -7 31 -46 99 -64 110 -5 3 -8 23 -5 43 4 36 -8 73 -20 60 -3 -3 -17 5
-30 18 -13 13 -33 24 -45 24 -28 0 -37 -28 -14 -44 17 -13 15 -15 -21 -25 -46
-13 -75 -14 -59 -3 6 4 13 15 17 24 7 20 -17 37 -45 33 -12 -2 -18 3 -18 15 0
43 -82 63 -122 30z m-23 -671 c11 -17 -1 -21 -15 -4 -8 9 -8 15 -2 15 6 0 14
-5 17 -11z m289 -14 c-22 -16 -34 -19 -34 -7 0 10 43 32 49 26 3 -2 -4 -11
-15 -19z m-226 -11 c12 -4 22 -11 22 -16 0 -10 -39 -1 -54 13 -12 11 -1 11 32
3z"/>
</g>
</svg>
